<svg height="512pt" viewBox="0 0 512 512" width="512pt" xmlns="http://www.w3.org/2000/svg"><path d="m512 256c0 141.386719-114.613281 256-256 256s-256-114.613281-256-256 114.613281-256 256-256 256 114.613281 256 256zm0 0" fill="#2c2f38"/><g fill="#7f8c8d"><path d="m35.308594 264.828125c-4.875 0-8.824219-3.953125-8.824219-8.828125.132813-76.285156 38.0625-147.546875 101.269531-190.261719 2.613282-1.765625 5.96875-2.003906 8.804688-.625 2.835937 1.382813 4.71875 4.167969 4.941406 7.316407.226562 3.144531-1.246094 6.171874-3.859375 7.9375-34.066406 23.019531-60.738281 55.40625-76.800781 93.253906-5.417969 12.800781-9.558594 26.109375-12.359375 39.722656-2.875 14.039062-4.328125 28.328125-4.34375 42.65625 0 4.875-3.949219 8.828125-8.828125 8.828125zm0 0"/><path d="m256 485.515625c-92.214844-.167969-175.425781-55.363281-211.445312-140.25-1.902344-4.492187.195312-9.671875 4.6875-11.574219 4.488281-1.902344 9.667968.199219 11.570312 4.6875 33.0625 78.519532 109.992188 129.554688 195.1875 129.484375 4.875 0 8.828125 3.949219 8.828125 8.828125 0 4.875-3.953125 8.824219-8.828125 8.824219zm0 0"/><path d="m411.976562 420.800781c-3.570312 0-6.789062-2.148437-8.15625-5.449219-1.367187-3.296874-.609374-7.09375 1.914063-9.617187 19.339844-19.320313 34.773437-42.191406 45.453125-67.355469 5.417969-12.800781 9.558594-26.109375 12.359375-39.722656 2.863281-14.039062 4.3125-28.328125 4.316406-42.65625 0-4.875 3.949219-8.828125 8.828125-8.828125 4.875 0 8.824219 3.953125 8.824219 8.828125-.007813 60.863281-24.21875 119.222656-67.300781 162.214844-1.648438 1.664062-3.898438 2.59375-6.238282 2.585937zm0 0"/><path d="m459.324219 179.015625c-3.550781 0-6.757813-2.125-8.136719-5.394531-27.171875-64.265625-84.203125-111.066406-152.53125-125.175782-4.671875-1.070312-7.636719-5.675781-6.675781-10.371093.957031-4.695313 5.488281-7.765625 10.207031-6.921875 73.984375 15.363281 135.730469 66.023437 165.25 135.582031 1.160156 2.726563.871094 5.851563-.761719 8.324219-1.632812 2.46875-4.398437 3.953125-7.359375 3.957031zm0 0"/></g><path d="m409.671875 368.402344c-3.265625-.003906-6.261719-1.804688-7.792969-4.691406-1.53125-2.882813-1.347656-6.375.484375-9.082032 19.710938-29.109375 30.230469-63.46875 30.1875-98.628906 0-4.875 3.953125-8.828125 8.828125-8.828125s8.828125 3.953125 8.828125 8.828125c.046875 38.683594-11.527343 76.488281-33.21875 108.515625-1.640625 2.433594-4.382812 3.886719-7.316406 3.886719zm0 0" fill="#d1d4d1"/><path d="m426.796875 192.742188c-3.550781.003906-6.753906-2.117188-8.140625-5.386719-17.972656-42.332031-51.679688-76.039063-94.011719-94.011719-4.492187-1.90625-6.589843-7.089844-4.683593-11.578125 1.902343-4.492187 7.085937-6.585937 11.578124-4.683594 46.546876 19.773438 83.605469 56.832031 103.378907 103.378907 1.15625 2.726562.871093 5.851562-.761719 8.324218-1.632812 2.46875-4.398438 3.957032-7.359375 3.957032zm0 0" fill="#d1d4d1"/><path d="m70.621094 264.828125c-4.875 0-8.828125-3.953125-8.828125-8.828125.011719-51.5 20.496093-100.878906 56.945312-137.261719 3.464844-3.34375 8.972657-3.296875 12.375.109375 3.40625 3.40625 3.453125 8.910156.109375 12.375-16.117187 16.101563-28.980468 35.160156-37.878906 56.132813-4.527344 10.667969-7.976562 21.753906-10.300781 33.105469-2.394531 11.695312-3.597657 23.601562-3.59375 35.539062 0 2.339844-.929688 4.585938-2.585938 6.242188s-3.902343 2.585937-6.242187 2.585937zm0 0" fill="#d1d4d1"/><path d="m218.695312 446.4375c-.59375-.003906-1.183593-.0625-1.765624-.183594-12.496094-2.5625-24.707032-6.359375-36.449219-11.335937-46.554688-19.769531-83.621094-56.828125-103.398438-103.378907-1.902343-4.492187.191407-9.675781 4.683594-11.578124 4.488281-1.90625 9.671875.191406 11.578125 4.683593 22.640625 53.558594 70.167969 92.5625 127.117188 104.3125 4.445312.90625 7.480468 5.027344 7.027343 9.539063-.457031 4.511718-4.257812 7.945312-8.792969 7.941406zm0 0" fill="#d1d4d1"/><path d="m394.257812 323.1875c-1.183593-.003906-2.351562-.242188-3.441406-.699219-2.15625-.910156-3.863281-2.644531-4.742187-4.8125-.878907-2.171875-.859375-4.601562.054687-6.757812 7.351563-17.375 11.128906-36.050781 11.113282-54.917969 0-4.875 3.953124-8.828125 8.828124-8.828125s8.828126 3.953125 8.828126 8.828125c0 10.742188-1.085938 21.457031-3.242188 31.980469-2.097656 10.21875-5.203125 20.207031-9.269531 29.8125-1.378907 3.269531-4.582031 5.394531-8.128907 5.394531zm0 0" fill="#fff"/><path d="m394.265625 206.476562c-3.550781.003907-6.757813-2.121093-8.136719-5.394531-3.558594-8.398437-7.925781-16.429687-13.039062-23.984375-15.34375-22.714844-36.9375-40.496094-62.171875-51.199218-4.5-1.898438-6.605469-7.082032-4.707031-11.582032 1.898437-4.496094 7.085937-6.601562 11.582031-4.703125 38.09375 16.171875 68.421875 46.5 84.59375 84.59375 1.160156 2.726563.871093 5.851563-.761719 8.320313-1.632812 2.472656-4.398438 3.957031-7.359375 3.957031zm0 0" fill="#fff"/><path d="m105.929688 264.828125c-4.875 0-8.828126-3.953125-8.828126-8.828125 0-10.742188 1.085938-21.457031 3.242188-31.980469 2.097656-10.21875 5.203125-20.207031 9.269531-29.8125 8.003907-18.871093 19.578125-36.019531 34.082031-50.503906 3.464844-3.34375 8.96875-3.296875 12.375.109375s3.453126 8.910156.105469 12.375c-6.40625 6.410156-12.191406 13.414062-17.273437 20.921875-5.105469 7.554687-9.46875 15.585937-13.03125 23.984375-7.351563 17.371094-11.128906 36.042969-11.113282 54.90625 0 2.339844-.929687 4.585938-2.585937 6.242188-1.652344 1.65625-3.898437 2.585937-6.242187 2.585937zm0 0" fill="#fff"/><path d="m197.640625 403.09375c-1.183594-.003906-2.355469-.242188-3.441406-.707031-38.09375-16.171875-68.417969-46.5-84.585938-84.59375-1.902343-4.488281.195313-9.671875 4.6875-11.574219 4.488281-1.898438 9.671875.199219 11.570313 4.6875 3.558594 8.398438 7.925781 16.433594 13.039062 23.984375 15.34375 22.714844 36.9375 40.5 62.171875 51.203125 3.882813 1.628906 6.070313 5.769531 5.234375 9.894531-.835937 4.121094-4.46875 7.082031-8.675781 7.070313zm0 0" fill="#fff"/><path d="m353.101562 256c0 53.628906-43.472656 97.101562-97.101562 97.101562s-97.101562-43.472656-97.101562-97.101562 43.472656-97.101562 97.101562-97.101562 97.101562 43.472656 97.101562 97.101562zm0 0" fill="#ff5364"/><path d="m300.136719 256c0 24.375-19.761719 44.136719-44.136719 44.136719s-44.136719-19.761719-44.136719-44.136719 19.761719-44.136719 44.136719-44.136719 44.136719 19.761719 44.136719 44.136719zm0 0" fill="#fff"/></svg>